<svg width="21" height="21" viewBox="0 0 21 21" fill="none" xmlns="http://www.w3.org/2000/svg">
<path d="M0 6.17797H1.85083V7.40844H0V6.17797Z" fill="#1F1F1F"/>
<path d="M19.1492 6.17797H21V7.40844H19.1492V6.17797Z" fill="#1F1F1F"/>
<path d="M17.6826 11.651L18.2979 10.5854L19.9007 11.5108L19.2854 12.5764L17.6826 11.651Z" fill="#1F1F1F"/>
<path d="M1.09912 2.07605L1.71436 1.01047L3.31717 1.93588L2.70194 3.00147L1.09912 2.07605Z" fill="#1F1F1F"/>
<path d="M1.09912 11.5102L2.70194 10.5848L3.31718 11.6504L1.71436 12.5758L1.09912 11.5102Z" fill="#1F1F1F"/>
<path d="M17.6824 1.93591L19.2852 1.0105L19.9004 2.07608L18.2976 3.0015L17.6824 1.93591Z" fill="#1F1F1F"/>
<path d="M11.1152 6.13487V3.55486L9.7927 3.30016L7.22217 8.57694L7.69573 9.40919L9.88474 9.59101V12.171L11.2072 12.4257L13.7778 7.14898L13.3042 6.31665L11.1152 6.13487ZM11.1152 9.80503V8.45853L8.74446 8.26161L9.88474 5.92089V7.26739L12.2555 7.46431L11.1152 9.80503Z" fill="#1F1F1F"/>
<path d="M10.5939 0.00065163C8.7774 -0.0240398 7.06372 0.653702 5.76767 1.90886C4.47117 3.16443 3.73965 4.85592 3.70782 6.67164C3.68014 8.25267 4.20719 9.80158 5.19198 11.033C6.26375 12.37 7.03148 13.9101 7.41355 15.5181V19.404L9.00955 21H11.9904L13.5864 19.404V15.5181C13.9656 13.9253 14.724 12.3778 15.801 11.0418C16.7633 9.8426 17.2932 8.33371 17.2932 6.79321C17.2932 4.99504 16.5975 3.30011 15.3343 2.02063C14.0722 0.742378 12.3887 0.0250149 10.5939 0.00065163ZM12.3559 16.0576V17.2983H8.64401V16.0576H12.3559ZM11.4807 19.7695H9.51925L8.64406 18.8943V18.5288H12.356V18.8943L11.4807 19.7695ZM14.8412 10.2717C13.735 11.6502 12.9463 13.1815 12.4942 14.8271H8.50567C8.05482 13.1877 7.26413 11.654 6.15293 10.2645C5.34685 9.25648 4.91541 7.98816 4.93805 6.69317C4.96413 5.20537 5.56272 3.82015 6.62363 2.79275C7.68441 1.76543 9.08883 1.21037 10.5771 1.23096C12.0467 1.25089 13.4252 1.83836 14.4586 2.88512C15.493 3.93282 16.0627 5.32075 16.0627 6.79321C16.0627 8.07302 15.6403 9.27588 14.8412 10.2717Z" fill="#1F1F1F"/>
</svg>
