<svg width="23" height="19" viewBox="0 0 23 19" fill="none" xmlns="http://www.w3.org/2000/svg">
<path d="M21.8136 4.48839C21.1572 3.38543 20.2305 2.33217 19.6034 1.77767C18.0717 0.423257 16.7278 0.471179 16.0628 0.620314C15.7073 0.700062 15.3786 0.844831 15.0956 1.04289C14.0657 0.34293 12.8361 0 11.3732 0C9.87725 0 8.62526 0.358606 7.58132 1.09086C7.30946 0.90964 6.99793 0.776445 6.66237 0.70122C5.9975 0.552033 4.65335 0.504163 3.12192 1.85847C2.49466 2.41308 1.56792 3.46638 0.911576 4.56935C-0.0727094 6.22339 -0.260981 7.61684 0.352021 8.71096C1.06907 9.99046 2.19024 10.3401 2.97031 10.4356C2.85679 11.0171 2.78898 11.6524 2.78898 12.3928C2.78898 13.7594 3.10793 14.9464 3.73687 15.9209C4.29537 16.7861 5.09212 17.4754 6.10497 17.9696C7.88075 18.8361 9.9621 18.9363 11.3732 18.9363C12.7843 18.9363 14.8657 18.8361 16.6415 17.9696C17.6543 17.4754 18.4511 16.7861 19.0095 15.9209C19.6386 14.9466 19.9575 13.7595 19.9575 12.3928C19.9575 11.6177 19.8832 10.9579 19.7598 10.354C20.5397 10.2576 21.6576 9.90682 22.3731 8.63C22.9861 7.53598 22.7978 6.14259 21.8136 4.48839ZM3.77448 7.85198C3.64192 8.20428 3.51382 8.54447 3.39641 8.88687C2.68377 8.85031 2.12359 8.64452 1.72847 7.93946C1.33326 7.23403 1.80344 6.15632 2.26746 5.37656C2.83359 4.42516 3.64896 3.49895 4.16701 3.04092C5.17308 2.15116 5.946 2.15795 6.31702 2.24122C6.32617 2.24327 6.33527 2.24543 6.34432 2.24764C5.37256 3.42914 4.79285 4.91853 4.31194 6.36106C4.12709 6.9153 3.94792 7.39132 3.77448 7.85198ZM12.0029 12.1491C11.7869 12.3645 11.5279 12.515 11.3732 12.515C11.2184 12.515 10.9594 12.3646 10.7435 12.1491C10.5268 11.9329 10.3754 11.6711 10.3754 11.5124C10.3754 11.3764 10.4173 11.3358 10.5112 11.2964C10.669 11.2301 10.9349 11.2006 11.3732 11.2006C11.8116 11.2006 12.0774 11.2301 12.2353 11.2964C12.3292 11.3359 12.371 11.3764 12.371 11.5124C12.371 11.6711 12.2196 11.9329 12.0029 12.1491ZM17.6838 15.0649C17.2837 15.6849 16.7002 16.185 15.9496 16.5512C14.7548 17.1342 13.3278 17.3016 12.1621 17.3446V13.9264C12.5855 13.7481 12.9187 13.4644 13.1172 13.2665C13.4279 12.9566 13.949 12.3167 13.949 11.5124C13.949 10.756 13.5367 10.1313 12.8462 9.84128C12.4759 9.68578 12.0491 9.62239 11.3732 9.62239C10.6973 9.62239 10.2705 9.68583 9.90029 9.84128C9.20975 10.1312 8.79749 10.756 8.79749 11.5124C8.79749 12.3166 9.31859 12.9566 9.62927 13.2665C9.82759 13.4644 10.1608 13.7481 10.5843 13.9264V17.3445C9.41859 17.3016 7.99169 17.1342 6.79683 16.5512C6.04626 16.1849 5.46277 15.6849 5.06256 15.0648C4.60095 14.3497 4.36691 13.4506 4.36691 12.3927C4.36691 10.7577 4.73788 9.77205 5.25141 8.4077C5.42989 7.93352 5.61448 7.44314 5.80891 6.86028C6.26594 5.4894 6.81198 4.08317 7.70515 3.08432C8.62405 2.05674 9.78961 1.57814 11.3732 1.57814C12.9568 1.57814 14.1224 2.05674 15.0413 3.08432C15.9346 4.08328 16.4806 5.48945 16.9375 6.86028C17.131 7.44035 17.3155 7.93078 17.495 8.40775C18.0085 9.772 18.3795 10.7577 18.3795 12.3927C18.3795 13.4509 18.1455 14.3499 17.6838 15.0649ZM20.9966 7.85845C20.6002 8.56577 20.0378 8.77062 19.322 8.80628C19.2121 8.49018 19.0933 8.17487 18.9708 7.84914C18.7975 7.38874 18.6184 6.91262 18.4344 6.36111C17.9439 4.8896 17.3506 3.36928 16.3429 2.17662C16.3643 2.17068 16.386 2.16521 16.4081 2.16026C16.7793 2.07715 17.552 2.07026 18.5582 2.96001C19.0761 3.41793 19.8915 4.3442 20.4577 5.29555C20.9217 6.07542 21.3918 7.15308 20.9966 7.85845Z" fill="#1F1F1F"/>
<path d="M9.2543 5.4451C8.81857 5.4451 8.46533 5.79839 8.46533 6.23422V7.42151C8.46533 7.85734 8.81857 8.21063 9.2543 8.21063C9.69002 8.21063 10.0433 7.85734 10.0433 7.42151V6.23422C10.0433 5.79839 9.69002 5.4451 9.2543 5.4451Z" fill="#1F1F1F"/>
<path d="M13.4709 5.4451C13.0351 5.4451 12.6819 5.79839 12.6819 6.23422V7.42151C12.6819 7.85734 13.0351 8.21063 13.4709 8.21063C13.9066 8.21063 14.2598 7.85734 14.2598 7.42151V6.23422C14.2599 5.79839 13.9066 5.4451 13.4709 5.4451Z" fill="#1F1F1F"/>
</svg>
