<svg width="8" height="8" viewBox="0 0 8 8" fill="none" xmlns="http://www.w3.org/2000/svg">
<path d="M0.592478 1.51006L2.91543 3.83326L0.592478 6.15635C0.24695 6.50201 0.24695 7.06193 0.592478 7.40759C0.765121 7.58023 0.991467 7.66662 1.2177 7.66662C1.44431 7.66662 1.67068 7.58036 1.84319 7.40759L4.16665 5.08424L6.48994 7.40757C6.66256 7.58021 6.88893 7.6666 7.11536 7.6666C7.34173 7.6666 7.56795 7.58034 7.74072 7.40757C8.08625 7.06206 8.08625 6.50212 7.74072 6.15632L5.41783 3.83324L7.74085 1.51006C8.08638 1.16453 8.08638 0.604476 7.74085 0.258948C7.39539 -0.086316 6.83567 -0.086316 6.49007 0.258948L4.16668 2.58215L1.84346 0.258948C1.4978 -0.086316 0.938005 -0.086316 0.592609 0.258948C0.246949 0.604476 0.24695 1.16453 0.592478 1.51006Z" fill="white"/>
</svg>
